<?xml version="1.0" encoding="utf-8"?>
<!-- Generator: Adobe Illustrator 25.0.0, SVG Export Plug-In . SVG Version: 6.00 Build 0)  -->
<svg version="1.1" id="Layer_1" xmlns="http://www.w3.org/2000/svg" xmlns:xlink="http://www.w3.org/1999/xlink" x="0px" y="0px"
	 viewBox="0 0 510.24 510.24" style="enable-background:new 0 0 510.24 510.24;" xml:space="preserve">
<style type="text/css">
	.st0{fill:#FF0000;}
	.st1{fill:#FFFFFF;}
	.st2{fill:#71706F;}
	.st3{fill:#C8036F;}
	.st4{fill:#84CDEE;}
	.st5{fill:#0C71B4;}
	.st6{fill:none;}
	.st7{fill:#FF5F00;}
	.st8{fill:#EB001B;}
	.st9{fill:#F79E1B;}
	.st10{fill:#FE6705;}
	.st11{fill:#626467;}
	.st12{fill:#FDB913;}
	.st13{fill:#231F20;}
	.st14{fill:#F69220;}
	.st15{fill:#606060;}
	.st16{fill:#FFCD00;}
	.st17{fill:#4E5F65;}
	.st18{fill:#006CB4;}
	.st19{fill:#8CC23C;}
	.st20{fill:#033564;}
	.st21{fill:#13BFB8;}
	.st22{fill:#00DDD4;}
	.st23{fill-rule:evenodd;clip-rule:evenodd;fill:#841D66;}
	.st24{fill:#841D66;}
	.st25{fill-rule:evenodd;clip-rule:evenodd;fill:#3D73B9;}
	.st26{fill-rule:evenodd;clip-rule:evenodd;fill:#1D1D1B;}
	.st27{fill:#1D1D1B;}
	.st28{fill:#EE7F00;}
	.st29{fill:#3A3A3A;}
	.st30{fill-rule:evenodd;clip-rule:evenodd;fill:#000268;}
	.st31{fill-rule:evenodd;clip-rule:evenodd;fill:#FFFFFF;}
	.st32{fill-rule:evenodd;clip-rule:evenodd;fill:#FF0007;}
	.st33{fill:#2D3540;}
	.st34{fill:#FF8C00;}
	.st35{fill:#D50072;}
	.st36{fill:#008AC9;}
	.st37{fill:#E3001B;}
	.st38{fill:#83BA3B;}
	.st39{fill-rule:evenodd;clip-rule:evenodd;fill:url(#Fill-1_1_);}
	.st40{fill:#0095EA;}
	.st41{fill-rule:evenodd;clip-rule:evenodd;fill:#1A1F71;}
	.st42{fill:#0EE06E;}
	.st43{fill:#545454;}
	.st44{fill:#D14B00;}
	.st45{fill-rule:evenodd;clip-rule:evenodd;}
	.st46{fill-rule:evenodd;clip-rule:evenodd;fill:#65C18E;}
	.st47{fill:#009540;}
	.st48{fill:#0F2B8E;}
	.st49{fill:#0B6726;}
	.st50{fill:#63AC1F;}
	.st51{fill:#F20014;}
	.st52{fill:#0069BF;}
	.st53{fill:#05A6CC;}
</style>
<g>
	<path class="st2" d="M396.86,255.17L396.86,255.17h-39.72c-4.42,0-8.01-3.52-8.01-7.93c0-4.41,3.59-8.28,8.01-8.28h60.47v-29.83
		h-60.47c-21.1,0-38.27,17.21-38.27,38.26s17.17,38.26,38.27,38.26h39.18c4.42,0,8.01,3.51,8.01,7.91c0,4.41-3.59,7.65-8.01,7.65
		h-84.01c-7.13,13.62-14.07,25.29-28.15,31.12h112.7c20.75-0.3,37.72-17.86,37.72-38.72C434.58,272.74,417.61,255.47,396.86,255.17"
		/>
	<path class="st2" d="M244.61,209.13c-33.66,0-61.08,27.58-61.08,61.47v1.3v126.57h30.48v-66.14h30.54
		c33.66,0,60.98-27.95,60.98-61.84C305.53,236.6,278.27,209.13,244.61,209.13 M244.61,301.21h-30.6v-30.71
		c0-17.16,13.66-31.13,30.6-31.13c16.94,0,30.72,13.96,30.72,31.13C275.33,287.66,261.55,301.21,244.61,301.21"/>
	<path class="st3" d="M87.05,332.33c-28.82,0-53.04-20.53-59.6-47.36c0,0-1.89-8.87-1.89-14.71c0-5.84,1.79-14.8,1.79-14.8
		c6.6-26.76,30.8-46.68,59.57-46.68c33.83,0,61.6,27.5,61.6,61.34v14.88H58.62c5.31,10.37,16.04,16.21,28.43,16.21h80.81l0.11-87.74
		c0-13.08-10.7-23.78-23.78-23.78H29.65c-13.08,0-23.79,10.38-23.79,23.46v114.53c0,13.08,10.7,24.11,23.79,24.11h114.53
		c11.74,0,21.53-8.43,23.42-19.45H87.05z"/>
	<path class="st3" d="M86.92,237.89c-12.33,0-23.06,7.55-28.39,17.28h56.78C109.98,245.44,99.25,237.89,86.92,237.89"/>
	<path class="st3" d="M138.79,152.43c0-27.95-23.23-50.61-51.89-50.61c-28.18,0-51.1,21.92-51.86,49.23c-0.01,0.12,0,0.23,0,0.35
		v15.21c0,1.82,1.48,3.62,3.35,3.62h19.09c1.86,0,3.5-1.8,3.5-3.62v-14.17c0-13.96,11.63-25.32,25.94-25.32s25.94,11.36,25.94,25.32
		v14.17c0,1.82,1.51,3.62,3.38,3.62h19.09c1.86,0,3.47-1.8,3.47-3.62L138.79,152.43L138.79,152.43z"/>
	<path class="st2" d="M278.8,371.88l-2.76,15.63c-1.38,7.9-6.55,11.51-13.57,11.51c-5.94,0-10.54-3.87-9.2-11.5l2.76-15.64h4.26
		l-2.76,15.63c-0.84,4.87,1.34,7.64,5.48,7.64c4.25,0,7.9-2.53,8.78-7.63l2.76-15.64L278.8,371.88L278.8,371.88z M262.09,366.99
		c0,1.3,1,1.92,2.07,1.92c1.34,0,2.8-0.96,2.8-2.76c0-1.26-0.84-1.92-1.96-1.92C263.62,364.23,262.09,365.11,262.09,366.99
		 M271.29,366.95c0,1.34,1.03,1.95,2.15,1.95c1.19,0,2.76-0.96,2.76-2.72c0-1.26-0.92-1.95-1.96-1.95
		C272.86,364.23,271.29,365.11,271.29,366.95"/>
	<path class="st2" d="M289.08,371.88l-1.92,10.8c1.65-2.22,4.94-3.4,7.24-3.4c4.75,0,8.05,2.78,8.05,7.96
		c0,7.32-5.1,11.72-11.61,11.72c-2.53,0-4.68-0.94-5.98-3.32l-0.73,2.82h-3.72l4.71-26.58H289.08z M286.1,390.1
		c-0.15,3.14,1.88,5.17,4.83,5.17c3.72,0,7.32-2.88,7.55-7.24c0.15-3.18-1.92-5.06-4.79-5.06C290,382.97,286.32,385.93,286.1,390.1"
		/>
	<path class="st2" d="M310.21,390.69c-0.15,2.59,1.88,4.71,5.33,4.71c1.92,0,4.45-0.75,5.83-2.05l2.15,2.48
		c-2.34,2.15-5.79,3.21-8.7,3.21c-5.44,0-8.62-3.26-8.62-8.24c0-6.63,5.21-11.57,11.88-11.57c6.1,0,9.55,3.68,7.47,11.46H310.21
		L310.21,390.69z M322.33,387.44c0.31-3.24-1.61-4.56-4.79-4.56c-2.87,0-5.52,1.32-6.67,4.56H322.33z"/>
	<path class="st2" d="M336.09,379.66l-0.19,2.5c1.84-2.42,4.06-2.91,6.09-2.91c1.84,0,3.49,0.65,4.37,1.61l-2.38,3.45
		c-0.84-0.76-1.69-1.15-3.14-1.15c-2.72,0-5.4,1.63-6.02,5.12l-1.8,10.18h-3.95l3.33-18.8H336.09z"/>
	<polygon class="st2" points="365.38,379.66 367.38,394.53 374.58,379.66 378.99,379.66 369.1,398.47 364.46,398.47 362.58,386.06 
		359.56,392.22 356.26,398.47 351.66,398.47 348.32,379.66 352.77,379.66 354.73,394.53 361.97,379.66 	"/>
	<path class="st2" d="M384.06,390.69c-0.15,2.59,1.88,4.71,5.33,4.71c1.92,0,4.45-0.75,5.82-2.05l2.15,2.48
		c-2.34,2.15-5.79,3.21-8.7,3.21c-5.44,0-8.62-3.26-8.62-8.24c0-6.63,5.21-11.57,11.88-11.57c6.09,0,9.54,3.68,7.47,11.46H384.06
		L384.06,390.69z M396.17,387.44c0.31-3.24-1.61-4.56-4.79-4.56c-2.87,0-5.52,1.32-6.67,4.56H396.17z"/>
	<path class="st2" d="M410.21,379.66l-3.33,18.8h-3.95l3.34-18.8H410.21z M406.72,374.54c0,1.34,1,2.03,2.07,2.03
		c1.53,0,2.95-1,2.95-2.88c0-1.27-0.96-2-1.99-2C408.33,371.7,406.72,372.63,406.72,374.54"/>
	<path class="st2" d="M427.73,384.31c-1.23-1.38-2.8-1.76-4.68-1.76c-2.61,0-4.45,0.88-4.45,2.53c0,1.38,1.49,1.96,3.72,2.15
		c3.45,0.31,7.86,1.46,6.94,6.32c-0.65,3.53-4.18,5.6-9.08,5.6c-3.07,0-6.02-0.69-8.01-3.49l2.57-2.8c1.42,1.95,3.91,2.76,6.13,2.8
		c1.88,0,4.1-0.69,4.45-2.45c0.34-1.69-1.15-2.34-3.91-2.61c-3.22-0.31-6.75-1.49-6.75-5.06c0-4.71,5.1-6.36,8.93-6.36
		c2.91,0,5.06,0.65,6.82,2.53L427.73,384.31z"/>
	<path class="st2" d="M440.19,379.66l-1.8,10.13c-0.58,3.22,0.88,5.45,4.18,5.45c3.1,0,5.75-2.57,6.29-5.71l1.72-9.86h3.95
		l-3.33,18.8h-3.56l0.27-2.72c-2.22,2.11-4.41,3.1-7.05,3.1c-4.64,0-7.4-3.33-6.4-9.03l1.8-10.15H440.19z"/>
	<path class="st2" d="M471.86,398.47l1.8-10.06c0.57-3.26-0.54-5.42-4.14-5.42c-3.14,0-5.79,2.53-6.32,5.63l-1.72,9.85h-3.95
		l3.34-18.8h3.6l-0.27,2.75c2.19-2.03,4.45-3.03,6.9-3.03c4.6,0,7.59,3.2,6.56,8.99l-1.8,10.1H471.86z"/>
	<path class="st2" d="M485.24,401.06c-0.27,2.59,1.72,3.64,5.06,3.64c2.91,0,6.06-1.63,6.79-5.77l0.57-3.23
		c-1.72,2.41-4.87,3.37-7.2,3.37c-4.83,0-8.2-2.88-8.2-8.09c0-7.43,5.52-11.73,11.77-11.73c2.65,0,5.02,1.26,5.87,3.4l0.65-3h3.83
		l-3.3,19.36c-1.23,7.17-6.55,9.39-11.42,9.39c-5.83,0-9.05-2.82-8.24-7.36L485.24,401.06L485.24,401.06z M486.35,390.22
		c0,3.22,2.11,5.17,5.14,5.17c8.16,0,10.35-12.53,2.18-12.53C489.8,382.86,486.35,385.73,486.35,390.22"/>
</g>
</svg>
