<?xml version="1.0" encoding="utf-8"?>
<!-- Generator: Adobe Illustrator 25.0.0, SVG Export Plug-In . SVG Version: 6.00 Build 0)  -->
<svg version="1.1" id="Layer_1" xmlns="http://www.w3.org/2000/svg" xmlns:xlink="http://www.w3.org/1999/xlink" x="0px" y="0px"
	 viewBox="0 0 510.24 510.24" style="enable-background:new 0 0 510.24 510.24;" xml:space="preserve">
<style type="text/css">
	.st0{fill:#FF0000;}
	.st1{fill:#FFFFFF;}
	.st2{fill:#71706F;}
	.st3{fill:#C8036F;}
	.st4{fill:#84CDEE;}
	.st5{fill:#0C71B4;}
	.st6{fill:none;}
	.st7{fill:#FF5F00;}
	.st8{fill:#EB001B;}
	.st9{fill:#F79E1B;}
	.st10{fill:#FE6705;}
	.st11{fill:#626467;}
	.st12{fill:#FDB913;}
	.st13{fill:#231F20;}
	.st14{fill:#F69220;}
	.st15{fill:#606060;}
	.st16{fill:#FFCD00;}
	.st17{fill:#4E5F65;}
	.st18{fill:#006CB4;}
	.st19{fill:#8CC23C;}
	.st20{fill:#033564;}
	.st21{fill:#13BFB8;}
	.st22{fill:#00DDD4;}
	.st23{fill-rule:evenodd;clip-rule:evenodd;fill:#841D66;}
	.st24{fill:#841D66;}
	.st25{fill-rule:evenodd;clip-rule:evenodd;fill:#3D73B9;}
	.st26{fill-rule:evenodd;clip-rule:evenodd;fill:#1D1D1B;}
	.st27{fill:#1D1D1B;}
	.st28{fill:#EE7F00;}
	.st29{fill:#3A3A3A;}
	.st30{fill-rule:evenodd;clip-rule:evenodd;fill:#000268;}
	.st31{fill-rule:evenodd;clip-rule:evenodd;fill:#FFFFFF;}
	.st32{fill-rule:evenodd;clip-rule:evenodd;fill:#FF0007;}
	.st33{fill:#2D3540;}
	.st34{fill:#FF8C00;}
	.st35{fill:#D50072;}
	.st36{fill:#008AC9;}
	.st37{fill:#E3001B;}
	.st38{fill:#83BA3B;}
	.st39{fill-rule:evenodd;clip-rule:evenodd;fill:url(#Fill-1_1_);}
	.st40{fill:#0095EA;}
	.st41{fill-rule:evenodd;clip-rule:evenodd;fill:#1A1F71;}
	.st42{fill:#0EE06E;}
	.st43{fill:#545454;}
	.st44{fill:#D14B00;}
	.st45{fill-rule:evenodd;clip-rule:evenodd;}
	.st46{fill-rule:evenodd;clip-rule:evenodd;fill:#65C18E;}
	.st47{fill:#009540;}
	.st48{fill:#0F2B8E;}
	.st49{fill:#0B6726;}
	.st50{fill:#63AC1F;}
	.st51{fill:#F20014;}
	.st52{fill:#0069BF;}
	.st53{fill:#05A6CC;}
</style>
<path class="st38" d="M495.28,218.59c-6.35-4.35-15.97-6.55-28.57-6.55H433.7l-12.27,66.62h-43.24l2.78-15.11h26.05l3.09-16.98
	l-26.03,0.04l2.79-15.05h26.83l3.57-19.51h-54.49l-11.65,63.19h-19.99l11.73-63.19h-28.48l-11.65,63.19h-19.48l11.74-63.19h-28.47
	l-12.29,66.62h-43.55l2.75-15.11h26.15l3.09-16.88l-26.13-0.03l2.77-15.08h27.13l3.55-19.52H80.21l-9.66,52.79L51.3,212.04H21.75
	l-15.9,86.15h28.22l9.63-54.24l18.68,54.24h101.14l12.3-66.64h15.82l-12.3,66.64h266.12l7.72-42.06l12.48,42.06h28.24l-12.93-34.37
	l2.96-0.64c6.52-1.4,11.6-4.4,15.14-8.9c3.54-4.54,5.34-10.37,5.34-17.37C504.39,228.77,501.4,222.77,495.28,218.59L495.28,218.59z
	 M138.95,278.66h-43.2l2.79-15.11h27.1l3.07-17.02h-26.83l2.58-14.96h43.14L138.95,278.66L138.95,278.66z M472.01,249.64
	c-2.84,1.99-6.96,2.95-12.59,2.95h-5.58l4.28-23.12h4.11c4.67,0,8.08,0.75,10.44,2.28c1.84,1.2,4.02,3.57,4.02,8.05
	C476.68,245.23,474.14,248.14,472.01,249.64L472.01,249.64z"/>
</svg>
