<?xml version="1.0" encoding="utf-8"?>
<!-- Generator: Adobe Illustrator 25.0.0, SVG Export Plug-In . SVG Version: 6.00 Build 0)  -->
<svg version="1.1" id="Layer_1" xmlns="http://www.w3.org/2000/svg" xmlns:xlink="http://www.w3.org/1999/xlink" x="0px" y="0px"
	 viewBox="0 0 510.24 510.24" style="enable-background:new 0 0 510.24 510.24;" xml:space="preserve">
<style type="text/css">
	.st0{fill:#FF0000;}
	.st1{fill:#FFFFFF;}
	.st2{fill:#71706F;}
	.st3{fill:#C8036F;}
	.st4{fill:#84CDEE;}
	.st5{fill:#0C71B4;}
	.st6{fill:none;}
	.st7{fill:#FF5F00;}
	.st8{fill:#EB001B;}
	.st9{fill:#F79E1B;}
	.st10{fill:#FE6705;}
	.st11{fill:#626467;}
	.st12{fill:#FDB913;}
	.st13{fill:#231F20;}
	.st14{fill:#F69220;}
	.st15{fill:#606060;}
	.st16{fill:#FFCD00;}
	.st17{fill:#4E5F65;}
	.st18{fill:#006CB4;}
	.st19{fill:#8CC23C;}
	.st20{fill:#033564;}
	.st21{fill:#13BFB8;}
	.st22{fill:#00DDD4;}
	.st23{fill-rule:evenodd;clip-rule:evenodd;fill:#841D66;}
	.st24{fill:#841D66;}
	.st25{fill-rule:evenodd;clip-rule:evenodd;fill:#3D73B9;}
	.st26{fill-rule:evenodd;clip-rule:evenodd;fill:#1D1D1B;}
	.st27{fill:#1D1D1B;}
	.st28{fill:#EE7F00;}
	.st29{fill:#3A3A3A;}
	.st30{fill-rule:evenodd;clip-rule:evenodd;fill:#000268;}
	.st31{fill-rule:evenodd;clip-rule:evenodd;fill:#FFFFFF;}
	.st32{fill-rule:evenodd;clip-rule:evenodd;fill:#FF0007;}
	.st33{fill:#2D3540;}
	.st34{fill:#FF8C00;}
	.st35{fill:#D50072;}
	.st36{fill:#008AC9;}
	.st37{fill:#E3001B;}
	.st38{fill:#83BA3B;}
	.st39{fill-rule:evenodd;clip-rule:evenodd;fill:url(#Fill-1_1_);}
	.st40{fill:#0095EA;}
	.st41{fill-rule:evenodd;clip-rule:evenodd;fill:#1A1F71;}
	.st42{fill:#0EE06E;}
	.st43{fill:#545454;}
	.st44{fill:#D14B00;}
	.st45{fill-rule:evenodd;clip-rule:evenodd;}
	.st46{fill-rule:evenodd;clip-rule:evenodd;fill:#65C18E;}
	.st47{fill:#009540;}
	.st48{fill:#0F2B8E;}
	.st49{fill:#0B6726;}
	.st50{fill:#63AC1F;}
	.st51{fill:#F20014;}
	.st52{fill:#0069BF;}
	.st53{fill:#05A6CC;}
</style>
<g>
	<path id="path2491_1_" class="st36" d="M96.13,250.62c-0.06-1.72-0.87-2.61-2.45-2.67h-8.43c-2,0.12-3.03,1.22-3.07,3.28v15.16
		c0.05,2.13,1.19,3.21,3.4,3.27h7.73c0.8,0,1.47-0.3,2-0.91c0.56-0.46,0.82-1.04,0.82-1.77V250.62z M71.35,248.47
		c0.06-3.79,0.9-6.68,2.54-8.65c0.86-0.83,1.93-1.52,3.24-2.09c1.36-0.61,2.67-0.9,3.95-0.9h15.47c6.82,0.06,10.29,3.79,10.4,11.21
		v22.82c-0.05,2.63-1.08,4.92-3.07,6.83c-1.97,2.01-4.33,3.03-7.07,3.09H82.18v16.45H71.35V248.47"/>
	<path id="path2493_1_" class="st36" d="M126.49,267.46c0,0.63,0.29,1.14,0.86,1.51c0.51,0.45,1.15,0.69,1.97,0.69h8.31
		c1.88,0,2.85-0.73,2.91-2.2v-3.1c0-1.69-0.99-2.55-2.99-2.55h-8.23c-1.08,0-1.83,0.18-2.25,0.52c-0.39,0.4-0.58,1.2-0.58,2.37
		V267.46z M140.54,250.36c0.06-1.66-0.91-2.46-2.91-2.4h-21.8v-11.12h24.54c7.15,0.12,10.78,3.57,10.9,10.39v23.26
		c-0.06,2.94-0.96,5.37-2.71,7.29c-1.83,2-4.18,3-7.07,3h-14.83c-7.22-0.06-10.88-3.36-10.99-9.91v-8.97
		c0.06-6.85,3.55-10.33,10.48-10.45h14.4V250.36"/>
	<path id="path2495_1_" class="st36" d="M181.67,286.11c0.86-0.05,1.6-0.36,2.2-0.91c0.58-0.52,0.87-1.11,0.87-1.78v-2.64h-13.86
		c-1.81,0-3.25-0.23-4.33-0.69c-1.14-0.42-2.27-1.2-3.42-2.3c-1.08-1.17-1.86-2.4-2.33-3.68c-0.49-1.17-0.74-2.66-0.74-4.45v-32.82
		h10.82v29.3c0,2.35,0.96,3.52,2.9,3.52h7.64c0.91,0,1.7-0.3,2.36-0.91c0.64-0.52,0.96-1.13,0.96-1.84v-30.08h10.73v48.42
		c-0.06,3.58-0.98,6.45-2.75,8.63c-1.8,2.18-4.26,3.29-7.4,3.34h-25.26v-11.12H181.67"/>
	<path id="path2497_1_" class="st36" d="M203.98,269.66h19.28c1.76-0.06,2.68-0.77,2.74-2.12v-1c0-0.29-0.09-0.61-0.26-0.96
		c-0.43-0.84-0.96-1.26-1.59-1.26h-9.56c-2.84-0.06-5.26-1.03-7.29-2.92c-2.06-1.74-3.11-3.89-3.17-6.4v-8.29
		c0.11-6.47,3.63-9.76,10.55-9.88h22.37v11.12h-18.95c-2.22,0-3.34,0.68-3.34,2.04v1.08c0,1.41,1.14,2.12,3.43,2.12h9.53
		c2.54,0.06,4.7,1.03,6.51,2.93c1.82,1.91,2.77,4.18,2.83,6.82v8.11c-0.06,2.28-1.11,4.55-3.14,6.82c-0.99,1.11-2,1.88-3.01,2.31
		c-1.05,0.4-2.47,0.6-4.28,0.6h-22.63V269.66"/>
	<path id="path2499_1_" class="st36" d="M255.56,267.46c0,0.63,0.29,1.14,0.88,1.51c0.5,0.45,1.15,0.69,1.95,0.69h8.33
		c1.88,0,2.85-0.73,2.9-2.2v-3.1c0-1.69-1-2.55-2.99-2.55h-8.24c-1.08,0-1.83,0.18-2.24,0.52c-0.39,0.4-0.59,1.2-0.59,2.37V267.46z
		 M269.62,250.36c0.05-1.66-0.92-2.46-2.92-2.4h-21.79v-11.12h24.55c7.14,0.12,10.77,3.57,10.88,10.39v23.26
		c-0.06,2.94-0.97,5.37-2.7,7.29c-1.81,2-4.17,3-7.06,3h-14.85c-7.22-0.06-10.88-3.36-10.98-9.91v-8.97
		c0.05-6.85,3.54-10.33,10.47-10.45h14.4V250.36"/>
	<path id="path2501_1_" class="st36" d="M289.14,230.53c0.07-3,1.17-5.41,3.34-7.22c2.1-1.84,4.87-2.78,8.28-2.83h6.87v10.74h-4.16
		c-2.29,0.05-3.45,1.15-3.5,3.26v2.35h7.67v11.13h-7.67v32.82h-10.83V230.53"/>
	<path id="path2503_1_" class="st36" d="M338.41,250.15v-0.26c0-0.57-0.23-1.06-0.7-1.42c-0.5-0.35-1.12-0.52-1.86-0.52h-7.53
		c-0.97,0-1.75,0.27-2.35,0.83c-0.75,0.51-1.13,1.19-1.13,2.02v4.46L338.41,250.15z M325.02,265.87v0.69c0,0.89,0.23,1.6,0.7,2.11
		c0.34,0.66,0.8,0.99,1.41,0.99h22.23v11.12h-23.64c-2.16,0-3.84-0.2-5.03-0.61c-1.3-0.43-2.47-1.13-3.48-2.1
		c-1.19-1.18-2-2.38-2.41-3.61c-0.45-1.29-0.67-2.99-0.67-5.12l-0.09-22.25c0.12-6.72,3.63-10.15,10.53-10.26h14.59
		c6.74,0.12,10.15,3.66,10.26,10.64v8.79L325.02,265.87"/>
	<path id="path2505_1_" class="st36" d="M372.34,280.78c-1.64,0-3.13-0.15-4.49-0.43c-1.42-0.23-2.84-0.89-4.29-2
		c-1.49-1.29-2.51-2.74-3.08-4.35c-0.6-1.58-0.88-3.36-0.88-5.37v-20.75c-0.06-1.69,0.11-3.18,0.5-4.47
		c0.36-1.29,1.13-2.55,2.28-3.78c1.32-1.29,2.66-2.15,4.08-2.58c1.37-0.34,2.9-0.52,4.63-0.52h16.59v2.6h-16.2
		c-2.86,0-5.11,0.59-6.75,1.76c-1.68,1.28-2.54,3.5-2.54,6.61v20.76c0,1.46,0.22,2.88,0.67,4.25c0.45,1.35,1.21,2.53,2.3,3.56
		c1.18,0.9,2.35,1.45,3.5,1.68c1.19,0.26,2.47,0.39,3.83,0.39h15.46v2.6H372.34"/>
	<path id="path2507_1_" class="st36" d="M430.35,253.86H408.6c-2.6,0.06-4.64,0.86-6.11,2.41c-1.52,1.58-2.27,3.74-2.27,6.48v6.62
		c0,1.28,0.13,2.46,0.41,3.51c0.27,1.11,0.96,2.11,2.03,2.96c1.88,1.56,3.96,2.33,6.23,2.33h13.18c5.51-0.06,8.28-2.96,8.28-8.72
		V253.86z M432.93,268.81c0,1.67-0.13,3.14-0.34,4.43c-0.35,1.4-1.07,2.75-2.16,4.04c-2.27,2.39-5.09,3.56-8.45,3.5h-12.93
		c-3.36,0-6.08-1-8.19-3c-2.15-1.97-3.25-4.72-3.25-8.24v-6.69c0.11-7.55,3.87-11.41,11.27-11.59h21.54v-2.93
		c0-2.41-0.7-4.52-2.09-6.34c-0.88-1.18-1.93-1.97-3.11-2.38c-1.2-0.31-2.54-0.47-4.04-0.47h-23.5v-2.6h22.28
		c2.04,0,3.88,0.14,5.55,0.43c0.86,0.17,1.64,0.5,2.36,0.99c0.76,0.46,1.47,1.13,2.13,2.01c2,2.58,2.97,5.55,2.93,8.9V268.81"/>
	<path id="path2509_1_" class="st36" d="M457.25,239.15c-6.03,0.11-9,3.4-8.89,9.88v31.75h-2.59v-31.74
		c-0.12-8.33,3.84-12.49,11.9-12.49h2.88v2.6H457.25"/>
	<path id="path2511_1_" class="st36" d="M501.06,239.16h-20.5c-1.48,0-2.8,0.16-3.99,0.48c-1.25,0.28-2.45,1.04-3.58,2.27
		c-1.08,1.12-1.76,2.24-2.05,3.35c-0.38,1.12-0.55,2.47-0.49,4.04v20.24c0,3.37,0.97,5.66,2.95,6.89c0.97,0.57,2.05,1,3.25,1.29
		c1.2,0.32,2.53,0.48,4,0.48h8.96c3.35,0,6.09-0.77,8.19-2.32c2.11-1.46,3.19-3.97,3.26-7.56V239.16z M503.65,268.48
		c-0.23,8.38-4.66,12.49-13.3,12.31h-9.61c-2.03,0-3.84-0.18-5.45-0.52c-1.65-0.43-3.23-1.43-4.76-3c-1.14-1.41-1.88-2.84-2.18-4.3
		c-0.4-1.46-0.57-3.08-0.51-4.85v-18.89c0.11-8.51,4.4-12.74,12.87-12.67h20.34v-14.34h2.59V268.48"/>
	<path id="path2513_1_" class="st37" d="M11.24,235.16c0.85-0.37,1.7-0.67,2.55-0.85c1.56-7.46,8.17-13.05,16.09-13.05
		c7.92,0,14.53,5.6,16.09,13.06c2.43,0.46,4.44,1.45,6.01,2.91c0.06-1.43,0.01-2.81-0.16-4.11c-1-11.27-10.45-20.11-21.97-20.11
		c-11.86,0-21.52,9.4-22.02,21.15c-0.07,1.01-0.09,2.07-0.05,3.18C8.76,236.5,9.9,235.74,11.24,235.16"/>
	<path id="path2515_1_" class="st37" d="M42.75,236.83H16.32c-1.27,0-2.59,0.29-3.95,0.9c-1.31,0.57-2.38,1.26-3.24,2.09
		c-1.64,1.97-2.48,4.85-2.54,8.65v20.66c0.06,3.8,0.9,6.68,2.54,8.64c0.86,0.84,1.93,1.53,3.24,2.11c1.36,0.6,2.68,0.9,3.95,0.9
		h26.43c6.83-0.06,10.3-3.81,10.41-11.21v-21.53C53.05,240.63,49.58,236.89,42.75,236.83"/>
</g>
</svg>
