<?xml version="1.0" encoding="utf-8"?>
<!-- Generator: Adobe Illustrator 25.0.0, SVG Export Plug-In . SVG Version: 6.00 Build 0)  -->
<svg version="1.1" id="Layer_1" xmlns="http://www.w3.org/2000/svg" xmlns:xlink="http://www.w3.org/1999/xlink" x="0px" y="0px"
	 viewBox="0 0 510.24 510.24" style="enable-background:new 0 0 510.24 510.24;" xml:space="preserve">
<style type="text/css">
	.st0{fill:#FF0000;}
	.st1{fill:#FFFFFF;}
	.st2{fill:#71706F;}
	.st3{fill:#C8036F;}
	.st4{fill:#84CDEE;}
	.st5{fill:#0C71B4;}
	.st6{fill:none;}
	.st7{fill:#FF5F00;}
	.st8{fill:#EB001B;}
	.st9{fill:#F79E1B;}
	.st10{fill:#FE6705;}
	.st11{fill:#626467;}
	.st12{fill:#FDB913;}
	.st13{fill:#231F20;}
	.st14{fill:#F69220;}
	.st15{fill:#606060;}
	.st16{fill:#FFCD00;}
	.st17{fill:#4E5F65;}
	.st18{fill:#006CB4;}
	.st19{fill:#8CC23C;}
	.st20{fill:#033564;}
	.st21{fill:#13BFB8;}
	.st22{fill:#00DDD4;}
	.st23{fill-rule:evenodd;clip-rule:evenodd;fill:#841D66;}
	.st24{fill:#841D66;}
	.st25{fill-rule:evenodd;clip-rule:evenodd;fill:#3D73B9;}
	.st26{fill-rule:evenodd;clip-rule:evenodd;fill:#1D1D1B;}
	.st27{fill:#1D1D1B;}
	.st28{fill:#EE7F00;}
	.st29{fill:#3A3A3A;}
	.st30{fill-rule:evenodd;clip-rule:evenodd;fill:#000268;}
	.st31{fill-rule:evenodd;clip-rule:evenodd;fill:#FFFFFF;}
	.st32{fill-rule:evenodd;clip-rule:evenodd;fill:#FF0007;}
	.st33{fill:#2D3540;}
	.st34{fill:#FF8C00;}
	.st35{fill:#D50072;}
	.st36{fill:#008AC9;}
	.st37{fill:#E3001B;}
	.st38{fill:#83BA3B;}
	.st39{fill-rule:evenodd;clip-rule:evenodd;fill:url(#Fill-1_1_);}
	.st40{fill:#0095EA;}
	.st41{fill-rule:evenodd;clip-rule:evenodd;fill:#1A1F71;}
	.st42{fill:#0EE06E;}
	.st43{fill:#545454;}
	.st44{fill:#D14B00;}
	.st45{fill-rule:evenodd;clip-rule:evenodd;}
	.st46{fill-rule:evenodd;clip-rule:evenodd;fill:#65C18E;}
	.st47{fill:#009540;}
	.st48{fill:#0F2B8E;}
	.st49{fill:#0B6726;}
	.st50{fill:#63AC1F;}
	.st51{fill:#F20014;}
	.st52{fill:#0069BF;}
	.st53{fill:#05A6CC;}
</style>
<g id="Page-1_4_">
	<g id="skrill-logo-web-1-rgb_4_">
		
			<linearGradient id="Fill-1_1_" gradientUnits="userSpaceOnUse" x1="-7839.2661" y1="789.7388" x2="-7838.146" y2="787.5942" gradientTransform="matrix(226.772 0 0 -77.456 1777856.875 61344.3398)">
			<stop  offset="0" style="stop-color:#6B195F"/>
			<stop  offset="1" style="stop-color:#4C255B"/>
		</linearGradient>
		<path id="Fill-1_4_" class="st39" d="M361.29,211.97c11.03,0,19.96-8.93,19.96-19.95c0-11.02-8.94-19.96-19.96-19.96
			c-11.01,0-19.94,8.94-19.94,19.96C341.34,203.04,350.27,211.97,361.29,211.97L361.29,211.97z M208.4,222.74
			c-0.9,2.26-7.38,20.58-23.06,39.55v-81.15l-41.78,8.26v147.1h41.78v-45.47c12.1,18.15,18.07,45.47,18.07,45.47h50.04
			c-4.95-20.58-26.6-58.52-26.6-58.52c19.43-24.64,27.97-50.89,29.32-55.24H208.4L208.4,222.74z M318.23,221.21
			c-37.42,1.2-56.41,17.99-56.41,51.36v63.93h40.82v-52.13c0-19.98,2.62-28.55,26.33-29.37v-33.21
			C324.98,220.95,318.23,221.21,318.23,221.21L318.23,221.21z M73.5,238.94c-5.12-0.34-16.96-1.1-16.96-11.77
			c0-12.87,17.06-12.87,23.45-12.87c11.25,0,25.82,3.32,36.22,6.44c0,0,5.8,2.05,10.74,4.14l0.46,0.12v-35.25l-0.63-0.19
			c-12.28-4.3-26.55-8.43-53.02-8.43c-45.64,0-61.81,26.59-61.81,49.36c0,13.13,5.63,44.03,57.89,47.59
			c4.43,0.27,16.19,0.95,16.19,11.97c0,9.1-9.63,14.47-25.82,14.47c-17.74,0-34.96-4.53-45.41-8.82v36.3
			c15.65,4.1,33.29,6.15,53.97,6.15c44.62,0,64.61-25.15,64.61-50.08C133.39,259.82,111.02,241.45,73.5,238.94L73.5,238.94z
			 M341.05,336.5h40.49V222.87h-40.49V336.5z M457.79,188.39V336.5h40.5V181.15L457.79,188.39L457.79,188.39z M398.69,188.39
			l40.46-7.24V336.5h-40.46V188.39L398.69,188.39z"/>
	</g>
</g>
</svg>
