<?xml version="1.0" encoding="utf-8"?>
<!-- Generator: Adobe Illustrator 25.0.0, SVG Export Plug-In . SVG Version: 6.00 Build 0)  -->
<svg version="1.1" id="Layer_1" xmlns="http://www.w3.org/2000/svg" xmlns:xlink="http://www.w3.org/1999/xlink" x="0px" y="0px"
	 viewBox="0 0 510.24 510.24" style="enable-background:new 0 0 510.24 510.24;" xml:space="preserve">
<style type="text/css">
	.st0{fill:#FF0000;}
	.st1{fill:#FFFFFF;}
	.st2{fill:#71706F;}
	.st3{fill:#C8036F;}
	.st4{fill:#84CDEE;}
	.st5{fill:#0C71B4;}
	.st6{fill:none;}
	.st7{fill:#FF5F00;}
	.st8{fill:#EB001B;}
	.st9{fill:#F79E1B;}
	.st10{fill:#FE6705;}
	.st11{fill:#626467;}
	.st12{fill:#FDB913;}
	.st13{fill:#231F20;}
	.st14{fill:#F69220;}
	.st15{fill:#606060;}
	.st16{fill:#FFCD00;}
	.st17{fill:#4E5F65;}
	.st18{fill:#006CB4;}
	.st19{fill:#8CC23C;}
	.st20{fill:#033564;}
	.st21{fill:#13BFB8;}
	.st22{fill:#00DDD4;}
	.st23{fill-rule:evenodd;clip-rule:evenodd;fill:#841D66;}
	.st24{fill:#841D66;}
	.st25{fill-rule:evenodd;clip-rule:evenodd;fill:#3D73B9;}
	.st26{fill-rule:evenodd;clip-rule:evenodd;fill:#1D1D1B;}
	.st27{fill:#1D1D1B;}
	.st28{fill:#EE7F00;}
	.st29{fill:#3A3A3A;}
	.st30{fill-rule:evenodd;clip-rule:evenodd;fill:#000268;}
	.st31{fill-rule:evenodd;clip-rule:evenodd;fill:#FFFFFF;}
	.st32{fill-rule:evenodd;clip-rule:evenodd;fill:#FF0007;}
	.st33{fill:#2D3540;}
	.st34{fill:#FF8C00;}
	.st35{fill:#D50072;}
	.st36{fill:#008AC9;}
	.st37{fill:#E3001B;}
	.st38{fill:#83BA3B;}
	.st39{fill-rule:evenodd;clip-rule:evenodd;fill:url(#Fill-1_1_);}
	.st40{fill:#0095EA;}
	.st41{fill-rule:evenodd;clip-rule:evenodd;fill:#1A1F71;}
	.st42{fill:#0EE06E;}
	.st43{fill:#545454;}
	.st44{fill:#D14B00;}
	.st45{fill-rule:evenodd;clip-rule:evenodd;}
	.st46{fill-rule:evenodd;clip-rule:evenodd;fill:#65C18E;}
	.st47{fill:#009540;}
	.st48{fill:#0F2B8E;}
	.st49{fill:#0B6726;}
	.st50{fill:#63AC1F;}
	.st51{fill:#F20014;}
	.st52{fill:#0069BF;}
	.st53{fill:#05A6CC;}
</style>
<g>
	<g id="layer1_1_" transform="matrix(3.3557321,0,0,3.3557321,-1551.7864,-1849.1059)">
		<g id="g13_1_" transform="matrix(2.5579399,0,0,2.5579399,884.90115,-11.427398)">
			<g id="g15_1_" transform="translate(-502.86126,-41.013507)">
				<path id="XMLID_3_" d="M354.72,314.14v-2.06c0-0.79-0.48-1.3-1.3-1.3c-0.41,0-0.86,0.14-1.17,0.58
					c-0.24-0.38-0.58-0.58-1.1-0.58c-0.34,0-0.69,0.1-0.96,0.48v-0.41h-0.72v3.29h0.72v-1.82c0-0.58,0.31-0.86,0.79-0.86
					c0.48,0,0.72,0.31,0.72,0.86v1.82h0.72v-1.82c0-0.58,0.34-0.86,0.79-0.86c0.48,0,0.72,0.31,0.72,0.86v1.82H354.72z
					 M365.38,310.85h-1.17v-0.99h-0.72v0.99h-0.65v0.65h0.65v1.51c0,0.75,0.31,1.2,1.13,1.2c0.31,0,0.65-0.1,0.89-0.24l-0.21-0.62
					c-0.21,0.14-0.45,0.17-0.62,0.17c-0.34,0-0.48-0.21-0.48-0.55v-1.47h1.17V310.85z M371.48,310.78c-0.41,0-0.69,0.21-0.86,0.48
					v-0.41h-0.72v3.29h0.72v-1.85c0-0.55,0.24-0.86,0.69-0.86c0.14,0,0.31,0.03,0.45,0.07l0.21-0.69
					C371.83,310.78,371.62,310.78,371.48,310.78L371.48,310.78z M362.26,311.12c-0.34-0.24-0.82-0.34-1.34-0.34
					c-0.82,0-1.37,0.41-1.37,1.06c0,0.55,0.41,0.86,1.13,0.96l0.34,0.03c0.38,0.07,0.58,0.17,0.58,0.34c0,0.24-0.27,0.41-0.75,0.41
					c-0.48,0-0.86-0.17-1.1-0.34l-0.34,0.55c0.38,0.27,0.89,0.41,1.41,0.41c0.96,0,1.51-0.45,1.51-1.06c0-0.58-0.45-0.89-1.13-0.99
					l-0.34-0.03c-0.31-0.03-0.55-0.1-0.55-0.31c0-0.24,0.24-0.38,0.62-0.38c0.41,0,0.82,0.17,1.03,0.27L362.26,311.12L362.26,311.12
					z M381.39,310.78c-0.41,0-0.69,0.21-0.86,0.48v-0.41h-0.72v3.29h0.72v-1.85c0-0.55,0.24-0.86,0.69-0.86
					c0.14,0,0.31,0.03,0.45,0.07l0.21-0.69C381.73,310.78,381.53,310.78,381.39,310.78L381.39,310.78z M372.2,312.49
					c0,0.99,0.69,1.71,1.75,1.71c0.48,0,0.82-0.1,1.17-0.38l-0.34-0.58c-0.27,0.21-0.55,0.31-0.86,0.31c-0.58,0-0.99-0.41-0.99-1.06
					c0-0.62,0.41-1.03,0.99-1.06c0.31,0,0.58,0.1,0.86,0.31l0.34-0.58c-0.34-0.27-0.69-0.38-1.17-0.38
					C372.89,310.78,372.2,311.5,372.2,312.49L372.2,312.49L372.2,312.49z M378.85,312.49v-1.65h-0.72v0.41
					c-0.24-0.31-0.58-0.48-1.03-0.48c-0.93,0-1.65,0.72-1.65,1.71c0,0.99,0.72,1.71,1.65,1.71c0.48,0,0.82-0.17,1.03-0.48v0.41h0.72
					V312.49L378.85,312.49z M376.21,312.49c0-0.58,0.38-1.06,0.99-1.06c0.58,0,0.99,0.45,0.99,1.06c0,0.58-0.41,1.06-0.99,1.06
					C376.59,313.52,376.21,313.08,376.21,312.49L376.21,312.49z M367.61,310.78c-0.96,0-1.65,0.69-1.65,1.71
					c0,1.03,0.69,1.71,1.68,1.71c0.48,0,0.96-0.14,1.34-0.45l-0.34-0.51c-0.27,0.21-0.62,0.34-0.96,0.34
					c-0.45,0-0.89-0.21-0.99-0.79h2.43c0-0.1,0-0.17,0-0.27C369.15,311.47,368.54,310.78,367.61,310.78L367.61,310.78L367.61,310.78
					z M367.61,311.4c0.45,0,0.75,0.27,0.82,0.79h-1.71C366.79,311.74,367.1,311.4,367.61,311.4L367.61,311.4z M385.47,312.49v-2.95
					h-0.72v1.71c-0.24-0.31-0.58-0.48-1.03-0.48c-0.93,0-1.65,0.72-1.65,1.71c0,0.99,0.72,1.71,1.65,1.71
					c0.48,0,0.82-0.17,1.03-0.48v0.41h0.72V312.49L385.47,312.49z M382.83,312.49c0-0.58,0.38-1.06,0.99-1.06
					c0.58,0,0.99,0.45,0.99,1.06c0,0.58-0.41,1.06-0.99,1.06C383.21,313.52,382.83,313.08,382.83,312.49L382.83,312.49z
					 M358.77,312.49v-1.65h-0.72v0.41c-0.24-0.31-0.58-0.48-1.03-0.48c-0.93,0-1.65,0.72-1.65,1.71c0,0.99,0.72,1.71,1.65,1.71
					c0.48,0,0.82-0.17,1.03-0.48v0.41h0.72V312.49L358.77,312.49z M356.09,312.49c0-0.58,0.38-1.06,0.99-1.06
					c0.58,0,0.99,0.45,0.99,1.06c0,0.58-0.41,1.06-0.99,1.06C356.47,313.52,356.09,313.08,356.09,312.49z"/>
			</g>
			<g id="XMLID_1_" transform="translate(-502.86126,-41.013507)">
				<rect id="rect19_1_" x="362.02" y="285.86" class="st7" width="10.8" height="19.4"/>
				<path id="XMLID_2_" class="st8" d="M362.71,295.56c0-3.94,1.85-7.44,4.7-9.7c-2.09-1.65-4.73-2.64-7.61-2.64
					c-6.82,0-12.34,5.52-12.34,12.34s5.52,12.34,12.34,12.34c2.88,0,5.52-0.99,7.61-2.64C364.56,303.03,362.71,299.5,362.71,295.56z
					"/>
				<path id="path22_1_" class="st9" d="M387.39,295.56c0,6.82-5.52,12.34-12.34,12.34c-2.88,0-5.52-0.99-7.61-2.64
					c2.88-2.26,4.7-5.76,4.7-9.7s-1.85-7.44-4.7-9.7c2.09-1.65,4.73-2.64,7.61-2.64C381.87,283.22,387.39,288.77,387.39,295.56z"/>
			</g>
		</g>
	</g>
	<path class="st41" d="M261.01,88.08c-0.2,15.43,13.76,24.05,24.27,29.17c10.8,5.26,14.43,8.62,14.38,13.32
		c-0.08,7.19-8.61,10.37-16.6,10.49c-13.93,0.22-22.03-3.76-28.47-6.77l-5.02,23.48c6.46,2.98,18.42,5.57,30.83,5.69
		c29.12,0,48.17-14.37,48.27-36.66c0.11-28.28-39.12-29.85-38.86-42.49c0.09-3.83,3.75-7.92,11.77-8.96
		c3.97-0.52,14.92-0.93,27.34,4.79l4.87-22.72c-6.68-2.43-15.26-4.76-25.94-4.76C280.44,52.66,261.17,67.22,261.01,88.08
		 M380.63,54.61c-5.32,0-9.8,3.1-11.8,7.86l-41.6,99.32h29.1l5.79-16h35.56l3.36,16h25.65L404.3,54.61H380.63z M384.7,83.57
		l8.4,40.25h-23L384.7,83.57z M225.73,54.61L202.8,161.79h27.73l22.93-107.18H225.73z M184.71,54.61l-28.86,72.95l-11.67-62.03
		c-1.37-6.92-6.78-10.92-12.79-10.92H84.21l-0.66,3.11c9.69,2.1,20.69,5.49,27.36,9.12c4.08,2.21,5.24,4.15,6.58,9.42l22.11,85.53
		h29.3l44.92-107.18H184.71z"/>
</g>
</svg>
